<svg xmlns="http://www.w3.org/2000/svg" width="1024" height="1024"><metadata><?xpacket begin="" id="W5M0MpCehiHzreSzNTczkc9d"?><x:xmpmeta xmlns:x="adobe:ns:meta/" x:xmptk="XMP Core 6.0.0"><rdf:RDF xmlns:rdf="http://www.w3.org/1999/02/22-rdf-syntax-ns#"><rdf:Description rdf:about="" xmlns:xmp="http://ns.adobe.com/xap/1.0/" xmlns:xmpMM="http://ns.adobe.com/xap/1.0/mm/" xmlns:dc="http://purl.org/dc/elements/1.1/" xmlns:dcterms="http://purl.org/dc/terms/" xmpMM:DocumentID="xmp.did:cb9f5498-bb58-4572-8043-8c369e6bfb9b" xmpMM:InstanceID="xmp.iid:cb9f5498-bb58-4572-8043-8c369e6bfb9b" dcterms:provenance="https://cai-manifests.adobe.com/manifests/urn-c2pa-9370855c-52eb-43a2-8d51-da7ab8cc8518-adobe"> </rdf:Description></rdf:RDF></x:xmpmeta>
<?xpacket end="w"?></metadata>
<defs>
<linearGradient id="grad3" x1="424.758" y1="243.268" x2="620.267" y2="779.754" gradientUnits="userSpaceOnUse">
<stop offset="0%" style="stop-color: rgb(147, 254, 170);" />
<stop offset="13.31%" style="stop-color: rgb(190, 255, 206);" />
<stop offset="31.1734%" style="stop-color: rgb(119, 227, 174);" />
<stop offset="38.1786%" style="stop-color: rgb(66, 204, 165);" />
<stop offset="47.6357%" style="stop-color: rgb(2, 161, 132);" />
<stop offset="73.9054%" style="stop-color: rgb(0, 45, 54);" />
<stop offset="94.0455%" style="stop-color: rgb(0, 113, 144);" />
<stop offset="100%" style="stop-color: rgb(0, 177, 217);" />
</linearGradient>
</defs>
<defs>
<linearGradient id="grad5" x1="534.824" y1="378.177" x2="667.939" y2="473.97" gradientUnits="userSpaceOnUse">
<stop offset="0%" style="stop-color: rgb(1, 190, 143);" />
<stop offset="100%" style="stop-color: rgb(1, 78, 55);" />
</linearGradient>
</defs>
<defs>
<linearGradient id="grad10" x1="597.108" y1="301.334" x2="771.859" y2="620.643" gradientUnits="userSpaceOnUse">
<stop offset="0%" style="stop-color: rgb(194, 235, 215);" />
<stop offset="34.3407%" style="stop-color: rgb(42, 175, 157);" />
<stop offset="43.6813%" style="stop-color: rgb(5, 150, 134);" />
<stop offset="76.3736%" style="stop-color: rgb(0, 35, 40);" />
<stop offset="100%" style="stop-color: rgb(0, 16, 31);" />
</linearGradient>
</defs>
<defs>
<linearGradient id="grad27" x1="358.003" y1="474.954" x2="376.747" y2="740.292" gradientUnits="userSpaceOnUse">
<stop offset="0%" style="stop-color: rgb(24, 217, 143);" />
<stop offset="100%" style="stop-color: rgb(0, 22, 25);" />
</linearGradient>
</defs>
<defs>
</defs>
<path d="M1023,-1 C1023,-1 1023,1023 1023,1023 C1023,1023 -1,1023 -1,1023 C-1,1023 -1,-1 -1,-1 C-1,-1 1023,-1 1023,-1 Z M253.5,141 C196.081,146.281 151.517,189.027 142,245.5 C142,245.5 141,768.5 141,768.5 C147.201,829.51 194.349,876.061 255.5,881 C255.5,881 766.5,881 766.5,881 C819.012,876.584 862.698,841.076 877,790.5 C883.652,604.99 883.642,416.038 877,230.5 C862.573,180.992 819.727,146.094 768.5,141 C768.5,141 253.5,141 253.5,141 Z " fill="rgb(254,254,254)"/>
<path d="M253.5,141 C253.5,141 768.5,141 768.5,141 C819.727,146.094 862.573,180.992 877,230.5 C883.642,416.038 883.652,604.99 877,790.5 C862.698,841.076 819.012,876.584 766.5,881 C766.5,881 255.5,881 255.5,881 C194.349,876.061 147.201,829.51 141,768.5 C141,768.5 142,245.5 142,245.5 C151.517,189.027 196.081,146.281 253.5,141 Z M282,247 C274.527,247.246 266.988,246.82 259.5,247 C259.5,247 259,250.5 259,250.5 C265.488,257.072 286.587,294.43 292.5,297 C294.613,297.919 313.936,299.874 315,298.5 C307.498,283.118 288.455,265.812 282,251 C284.951,250.94 289.376,252.815 292,253 C319.005,291.079 345.356,329.668 372,368 C392.895,398.06 414.043,427.987 435,458 C483.721,527.772 531.115,599.111 581,668 C576.367,667.25 577.879,670.473 574,666.5 C561.079,653.266 540.099,617.124 528,600 C457.681,500.479 385.268,402.462 317,301.5 C308.173,297.819 311.221,308.81 311,315 C310.598,326.275 311.094,337.708 311,349 C310.869,364.65 311.055,380.349 311,396 C309.368,390.197 308.015,384.198 306,378.5 C303.86,372.449 299.168,361.096 295,354.5 C293.878,352.724 281.842,336.896 281,341.5 C281,341.5 281,725.5 281,725.5 C283.698,733.872 287.735,740.299 294.5,746 C294.5,746 308.5,729 308.5,729 C312.249,729.329 311.365,744.045 317,744 C333.268,771.652 393.816,755.778 421.5,760 C421.5,760 422,722 422,722 C422.869,691.564 427.149,607.838 422,582.5 C421.926,582.136 418.738,576.189 417,577 C416.987,573.68 417.03,570.32 417,567 C416.755,539.831 417.235,512.657 416,485.5 C416,485.5 399,478 399,478 C397.782,469.835 382.516,449.475 377,441 C379.522,439.435 379.937,429.139 380,426.5 C380.136,420.78 380.151,415.131 379,409.5 C379,409.5 317,319 317,319 C317.481,317.554 316.184,317.086 316,316 C315.782,314.716 315.081,306.448 318,308.5 C318,308.5 423,461.5 423,461.5 C423,461.5 423,486.5 423,486.5 C452.763,528.501 482.999,570.184 513,612 C540.144,649.833 566.588,689.118 595,725.5 C595,725.5 605.5,711 605.5,711 C605.5,711 632,743 632,743 C649.467,763.197 716.228,762.906 741.5,759 C743.492,758.692 747.058,757.492 749,756.5 C749.808,754.572 727.927,724.39 725.5,722 C724.485,721 722.185,723.907 721,722.5 C706.354,698.972 690.018,676.57 674,654 C653.174,624.656 633.48,594.559 613,565 C613,565 617,563 617,563 C643.593,601.895 675.419,637.956 702,677 C704.576,682.161 731.409,721.046 734,722 C735.299,722.479 741.172,722.372 742,720.5 C742.077,657.336 741.897,594.152 742,531 C742.076,484.023 742.247,436.976 742,390 C741.881,367.399 745.799,280.409 737,266.5 C730.413,256.088 719.093,253.638 708,251 C682.582,244.955 651.425,246.452 625,247 C621.105,247.081 601.145,245.921 600,248.5 C599.915,287.997 600.114,327.514 600,367 C599.874,410.604 599.301,454.409 600,498 C600.219,511.645 599.838,525.353 600,539 C600,539 599,540 599,540 C592.19,527.578 577.526,506.424 568,496 C563.316,487.566 557.137,478.402 551,471 C518.975,425.646 488.891,378.733 456,334 C438.401,312.614 415.919,260.948 389.5,252 C373.154,246.464 352.09,246.315 335,246 C317.355,245.674 299.624,246.42 282,247 Z " fill="rgb(0,0,0)"/>
<path d="M335,246 C335.441,250.776 343.604,244.532 342,252 C326.327,251.873 306.723,254.036 292,253 C289.376,252.815 284.951,250.94 282,251 C281.202,249.168 277.842,250.094 282,247 C299.624,246.42 317.355,245.674 335,246 Z " fill="rgb(13,173,121)"/>
<path d="M456,334 C455.246,332.974 451.559,330.101 450,328 C436.011,309.148 422.191,290.127 408.5,271 C408.5,271 406,273.5 406,273.5 C413.692,289.295 425.393,302.299 435,316.5 C455.499,346.802 476.22,376.908 497,407 C505.977,419.999 515.012,433.009 524,446 C572.761,516.48 622.197,586.555 671,657 C687.137,680.293 724.391,726.259 735,748.5 C735.626,749.813 737.746,753.165 735.5,754 C712.144,750.793 674.152,758.711 652.5,753 C638.717,749.365 611.607,704.706 602,691 C547.187,612.798 492.737,534.257 438,456 C417.021,426.006 395.921,396.027 375,366 C349.767,329.783 325.649,292.732 299,257.5 C299,257.5 383.5,255 383.5,255 C372.103,249.747 355.095,252.106 342,252 C343.604,244.532 335.441,250.776 335,246 C352.09,246.315 373.154,246.464 389.5,252 C415.919,260.948 438.401,312.614 456,334 Z " fill="url(#grad3)"/>
/>
<path d="M282,247 C277.842,250.094 281.202,249.168 282,251 C288.455,265.812 307.498,283.118 315,298.5 C313.936,299.874 294.613,297.919 292.5,297 C286.587,294.43 265.488,257.072 259,250.5 C259,250.5 259.5,247 259.5,247 C266.988,246.82 274.527,247.246 282,247 Z " fill="rgb(0,74,50)"/>
<path d="M625,247 C626.404,249.541 627.287,249.949 630,251 C630,251 630,332.5 630,332.5 C630,332.5 634,335 634,335 C633.78,361.311 634.072,387.686 634,414 C633.995,415.659 634.003,417.341 634,419 C630.999,418.562 632.053,421.673 632,423.5 C631.389,444.611 632.16,465.882 632,487 C631.912,498.592 628.849,573.519 631,577.5 C633.79,582.663 633.921,572.08 634,571 C634,571 638,571 638,571 C638.227,573.451 637.842,576.025 638,578.5 C638,578.5 681,636.5 681,636.5 C681.511,639.716 677.084,634.211 678,637.5 C678.456,639.138 695.55,661.951 698,665 C695.262,667.465 702.499,672.357 703,673.5 C703.724,675.153 701.767,676.533 702,677 C675.419,637.956 643.593,601.895 617,563 C611.479,554.926 605.525,547.074 600,539 C599.838,525.353 600.219,511.645 600,498 C600,498 600,367 600,367 C600.114,327.514 599.915,287.997 600,248.5 C601.145,245.921 621.105,247.081 625,247 Z " fill="url(#grad5)"/>
/>
<path d="M708,251 C707.208,251.755 702.249,252.937 701.5,253 C686.476,254.262 649.285,254.927 635,253 C634.72,252.962 630.935,251.362 630,251 C627.287,249.949 626.404,249.541 625,247 C651.425,246.452 682.582,244.955 708,251 Z " fill="rgb(38,186,151)"/>
<path d="M635,253 C635.878,280.253 634.227,307.855 634,335 C634,335 630,332.5 630,332.5 C630,332.5 630,251 630,251 C630.935,251.362 634.72,252.962 635,253 Z " fill="rgb(98,178,142)"/>
<path d="M742,390 C738.999,390.438 740.053,387.327 740,385.5 C739.307,361.54 740.516,337.471 740,313.5 C737.73,331.015 739.596,348.883 739,366.5 C738.938,368.331 740.009,371.436 737,371 C736.939,351.107 740.927,287.808 736,273.5 C729.288,254.009 708.155,256.591 692,256 C685.403,255.759 678.606,255.902 672,256 C668.736,256.048 648.738,255.5 648,256.5 C648.447,276.485 647.135,296.916 647,317 C649.276,311.865 640.894,312.236 640,313.5 C638.571,315.521 639.092,356.364 639,363 C638.811,376.573 640.168,390.484 640,404 C640,404 637,382.5 637,382.5 C635.455,390.777 637.129,399.347 637,407.5 C636.993,407.953 635.955,419.246 634,414 C634.072,387.686 633.78,361.311 634,335 C634.227,307.855 635.878,280.253 635,253 C649.285,254.927 686.476,254.262 701.5,253 C702.249,252.937 707.208,251.755 708,251 C719.093,253.638 730.413,256.088 737,266.5 C745.799,280.409 741.881,367.399 742,390 Z " fill="rgb(223,247,240)"/>
<path d="M342,252 C355.095,252.106 372.103,249.747 383.5,255 C383.5,255 299,257.5 299,257.5 C325.649,292.732 349.767,329.783 375,366 C375,366 372,368 372,368 C345.356,329.668 319.005,291.079 292,253 C306.723,254.036 326.327,251.873 342,252 Z " fill="rgb(238,254,245)"/>
<path d="M672,256 C672,256 670.5,266 670.5,266 C670.5,266 692.5,266 692.5,266 C692.5,266 692,256 692,256 C708.155,256.591 729.288,254.009 736,273.5 C740.927,287.808 736.939,351.107 737,371 C737.165,424.981 737.011,479.018 737,533 C736.99,580.649 737.141,628.352 737,676 C725.352,661.384 713.085,647.047 702,632 C684.038,607.617 668.243,581.478 649,558 C649.151,555.253 648.07,553.093 648,551 C646.063,542.174 650.547,498.215 648,493.5 C644.569,487.149 645.323,502.045 645,502.5 C637.524,513.04 642.052,480.795 638,481 C637.888,476.183 638.081,471.329 638,466.5 C638,466.5 636,467.5 636,467.5 C639.073,462.709 637.659,457.353 638,451 C639.352,452.628 638.648,481.455 645,472.5 C646.49,470.4 644.956,427.655 645,421 C649.017,421.465 647.709,420.201 648,417.5 C651.257,387.23 646.789,348.32 647,317 C647.135,296.916 648.447,276.485 648,256.5 C648.738,255.5 668.736,256.048 672,256 Z " fill="url(#grad10)"/>
/>
<path d="M692,256 C692,256 692.5,266 692.5,266 C692.5,266 670.5,266 670.5,266 C670.5,266 672,256 672,256 C678.606,255.902 685.403,255.759 692,256 Z " fill="rgb(125,215,194)"/>
<path d="M450,328 C466.088,354.16 483.433,379.835 501,405 C501,405 497,407 497,407 C476.22,376.908 455.499,346.802 435,316.5 C425.393,302.299 413.692,289.295 406,273.5 C406,273.5 408.5,271 408.5,271 C422.191,290.127 436.011,309.148 450,328 Z " fill="rgb(239,253,245)"/>
<path d="M528,600 C528,600 513,612 513,612 C482.999,570.184 452.763,528.501 423,486.5 C423,486.5 423,461.5 423,461.5 C423,461.5 318,308.5 318,308.5 C315.081,306.448 315.782,314.716 316,316 C316,316 311,315 311,315 C311.221,308.81 308.173,297.819 317,301.5 C385.268,402.462 457.681,500.479 528,600 Z " fill="rgb(0,134,100)"/>
<path d="M647,317 C646.789,348.32 651.257,387.23 648,417.5 C647.709,420.201 649.017,421.465 645,421 C645.049,413.572 646.135,366.141 645,363.5 C644.881,363.223 639.751,363.165 639,363 C639.092,356.364 638.571,315.521 640,313.5 C640.894,312.236 649.276,311.865 647,317 Z " fill="rgb(188,236,213)"/>
<path d="M742,390 C742.247,436.976 742.076,484.023 742,531 C738.999,531.438 740.053,528.327 740,526.5 C739.658,514.68 740.665,502.793 739.5,491 C738.275,503.457 739.422,516.018 739,528.5 C738.938,530.33 740.009,533.436 737,533 C737.011,479.018 737.165,424.981 737,371 C740.009,371.436 738.938,368.331 739,366.5 C739.596,348.883 737.73,331.015 740,313.5 C740.516,337.471 739.307,361.54 740,385.5 C740.053,387.327 738.999,390.438 742,390 Z " fill="rgb(135,237,221)"/>
<path d="M316,316 C316.184,317.086 317.481,317.554 317,319 C315.993,328.594 316.997,338.382 317,348 C317,348 311,349 311,349 C311.094,337.708 310.598,326.275 311,315 C311,315 316,316 316,316 Z " fill="rgb(110,253,211)"/>
<path d="M377,441 C371.412,432.415 363.708,417.498 356,409.5 C353.106,406.497 351.779,403.961 349,409 C347.754,407.266 341.208,397.198 340.5,397 C337.391,396.129 338.629,398.549 337,400 C332.551,396.758 333.392,387.128 333,386.5 C332.193,385.206 328.072,385.453 327,383.5 C326.408,382.42 328.603,381.566 328,380.5 C326.747,378.285 323.493,377.282 322,374.5 C321.477,373.525 323.567,368.577 321.5,368 C318.775,367.24 318.22,372.141 318,373.5 C317.259,378.076 317.788,387.871 318,393 C318,393 316,393 316,393 C316.066,378.027 317.004,362.928 317,348 C316.997,338.382 315.993,328.594 317,319 C317,319 379,409.5 379,409.5 C380.151,415.131 380.136,420.78 380,426.5 C379.937,429.139 379.522,439.435 377,441 Z " fill="rgb(1,45,30)"/>
<path d="M456,334 C488.891,378.733 518.975,425.646 551,471 C549.477,469.163 544.676,466.126 543,464 C537.823,457.43 532.959,450.723 528,444 C518.702,431.393 509.991,417.88 501,405 C483.433,379.835 466.088,354.16 450,328 C451.559,330.101 455.246,332.974 456,334 Z " fill="rgb(106,212,170)"/>
<path d="M311,396 C310.934,414.984 310.973,434.016 311,453 C311,453 312,610 312,610 C312.227,634.98 307.824,728.402 317,744 C311.365,744.045 312.249,729.329 308.5,729 C308.5,729 294.5,746 294.5,746 C287.735,740.299 283.698,733.872 281,725.5 C281,725.5 281,341.5 281,341.5 C281.842,336.896 293.878,352.724 295,354.5 C299.168,361.096 303.86,372.449 306,378.5 C308.015,384.198 309.368,390.197 311,396 Z " fill="rgb(1,45,30)"/>
<path d="M317,348 C317.004,362.928 316.066,378.027 316,393 C315.798,438.682 316.785,484.356 317,530 C317,530 313,529.5 313,529.5 C313,529.5 311,514 311,514 C310.952,493.681 311.029,473.319 311,453 C310.973,434.016 310.934,414.984 311,396 C311.055,380.349 310.869,364.65 311,349 C311,349 317,348 317,348 Z " fill="rgb(226,254,246)"/>
<path d="M645,421 C644.956,427.655 646.49,470.4 645,472.5 C638.648,481.455 639.352,452.628 638,451 C638.846,435.25 639.804,419.82 640,404 C640.168,390.484 638.811,376.573 639,363 C639.751,363.165 644.881,363.223 645,363.5 C646.135,366.141 645.049,413.572 645,421 Z " fill="rgb(120,209,177)"/>
<path d="M438,456 C438,456 435,458 435,458 C414.043,427.987 392.895,398.06 372,368 C372,368 375,366 375,366 C395.921,396.027 417.021,426.006 438,456 Z " fill="rgb(197,253,231)"/>
<path d="M600,498 C599.301,454.409 599.874,410.604 600,367 C600,367 600,498 600,498 Z " fill="rgb(2,164,128)"/>
<path d="M337,400 C333.664,402.97 333.755,405.613 327,405.5 C327,405.5 333,406.5 333,406.5 C333.771,412.689 343.261,420.287 345,424.5 C346.898,429.101 346.116,442.439 347,446 C347,446 318,407.5 318,407.5 C318.287,402.619 318.201,397.864 318,393 C317.788,387.871 317.259,378.076 318,373.5 C318.22,372.141 318.775,367.24 321.5,368 C323.567,368.577 321.477,373.525 322,374.5 C323.493,377.282 326.747,378.285 328,380.5 C328.603,381.566 326.408,382.42 327,383.5 C328.072,385.453 332.193,385.206 333,386.5 C333.392,387.128 332.551,396.758 337,400 Z M325.5,386 C324.722,386.001 324.723,396.001 325.5,396 C326.356,394.7 326.215,385.999 325.5,386 Z " fill="rgb(33,152,99)"/>
<path d="M640,404 C639.804,419.82 638.846,435.25 638,451 C637.659,457.353 639.073,462.709 636,467.5 C636,467.5 638,466.5 638,466.5 C638.081,471.329 637.888,476.183 638,481 C638.457,500.631 637.662,520.363 638,540 C638.069,543.985 637.891,548.018 638,552 C638,552 634,552 634,552 C633.976,546.681 634.046,541.318 634,536 C634.055,497.017 633.926,457.983 634,419 C634.003,417.341 633.995,415.659 634,414 C635.955,419.246 636.993,407.953 637,407.5 C637.129,399.347 635.455,390.777 637,382.5 C637,382.5 640,404 640,404 Z " fill="rgb(71,231,196)"/>
<path d="M325.5,386 C326.215,385.999 326.356,394.7 325.5,396 C324.723,396.001 324.722,386.001 325.5,386 Z " fill="rgb(1,45,30)"/>
<path d="M318,393 C318.201,397.864 318.287,402.619 318,407.5 C318,407.5 347,446 347,446 C347.664,448.676 372.939,491.669 375,493.5 C375.508,493.952 379.66,494.815 381,496 C381.824,499.831 382.379,502.37 384,506 C380.349,505.588 382.544,512.391 383,513.5 C386.251,521.414 392.509,529.469 396.5,537 C400.901,534.289 388.501,522.586 391,517 C392.573,519.208 395.045,522.647 398,523 C398.53,543.928 399.272,550.151 413,567 C413,567 413,752.5 413,752.5 C387.604,749.021 322.833,768.985 317,732.5 C316.762,665.004 317.318,597.483 317,530 C316.785,484.356 315.798,438.682 316,393 C316,393 318,393 318,393 Z " fill="url(#grad27)"/>
/>
<path d="M349,409 C349.257,409.357 350.119,411.762 351,413 C346.602,416.351 354.153,423.431 355,428.5 C355.231,429.88 352.183,432.687 353,436.5 C353.225,437.552 362.189,451.339 364,455 C365.176,457.377 365.684,461.861 366,462.5 C366.535,463.583 369.691,462.069 371,464.5 C372.868,467.97 372.486,476.264 374,479.5 C374.889,481.401 382.605,487.786 383,491.5 C383.152,492.931 380.851,495.307 381,496 C379.66,494.815 375.508,493.952 375,493.5 C372.939,491.669 347.664,448.676 347,446 C346.116,442.439 346.898,429.101 345,424.5 C343.261,420.287 333.771,412.689 333,406.5 C333,406.5 327,405.5 327,405.5 C333.755,405.613 333.664,402.97 337,400 C338.629,398.549 337.391,396.129 340.5,397 C341.208,397.198 347.754,407.266 349,409 Z " fill="rgb(13,111,73)"/>
<path d="M501,405 C509.991,417.88 518.702,431.393 528,444 C528,444 524,446 524,446 C515.012,433.009 505.977,419.999 497,407 C497,407 501,405 501,405 Z " fill="rgb(179,245,220)"/>
<path d="M377,441 C382.516,449.475 397.782,469.835 399,478 C400.921,490.875 397.65,509.203 398,523 C395.045,522.647 392.573,519.208 391,517 C389.817,515.339 384.604,507.352 384,506 C382.379,502.37 381.824,499.831 381,496 C380.851,495.307 383.152,492.931 383,491.5 C382.605,487.786 374.889,481.401 374,479.5 C372.486,476.264 372.868,467.97 371,464.5 C369.691,462.069 366.535,463.583 366,462.5 C365.684,461.861 365.176,457.377 364,455 C375.915,443.285 358.778,423.93 351,413 C350.119,411.762 349.257,409.357 349,409 C351.779,403.961 353.106,406.497 356,409.5 C363.708,417.498 371.412,432.415 377,441 Z " fill="rgb(3,55,34)"/>
<path d="M364,455 C362.189,451.339 353.225,437.552 353,436.5 C352.183,432.687 355.231,429.88 355,428.5 C354.153,423.431 346.602,416.351 351,413 C358.778,423.93 375.915,443.285 364,455 Z " fill="rgb(10,84,55)"/>
<path d="M634,419 C633.926,457.983 634.055,497.017 634,536 C633.861,519.851 632.855,503.153 632,487 C632.16,465.882 631.389,444.611 632,423.5 C632.053,421.673 630.999,418.562 634,419 Z " fill="rgb(7,48,39)"/>
<path d="M528,444 C532.959,450.723 537.823,457.43 543,464 C547.38,473.144 554.266,480.771 560,489 C573.678,508.633 587.392,528.323 601,548 C604.947,553.707 609.064,559.32 613,565 C633.48,594.559 653.174,624.656 674,654 C674,654 671,657 671,657 C622.197,586.555 572.761,516.48 524,446 C524,446 528,444 528,444 Z " fill="rgb(80,219,192)"/>
<path d="M311,514 C311.076,545.968 311.709,577.992 312,610 C312,610 311,453 311,453 C311.029,473.319 310.952,493.681 311,514 Z " fill="rgb(1,12,9)"/>
<path d="M438,456 C492.737,534.257 547.187,612.798 602,691 C602,691 601,693.5 601,693.5 C598.33,689.38 595.038,685.798 592,682 C588.319,677.399 584.453,672.769 581,668 C531.115,599.111 483.721,527.772 435,458 C435,458 438,456 438,456 Z " fill="rgb(32,229,195)"/>
<path d="M551,471 C557.137,478.402 563.316,487.566 568,496 C566.003,493.814 562.643,490.503 560,489 C554.266,480.771 547.38,473.144 543,464 C544.676,466.126 549.477,469.163 551,471 Z " fill="rgb(21,162,125)"/>
<path d="M417,567 C417,567 413,567 413,567 C399.272,550.151 398.53,543.928 398,523 C397.65,509.203 400.921,490.875 399,478 C399,478 416,485.5 416,485.5 C417.235,512.657 416.755,539.831 417,567 Z " fill="rgb(1,45,30)"/>
<path d="M648,551 C647.684,541.579 646.164,532.024 647,522.5 C645.512,527.192 642.521,527.665 640,523.5 C641.248,528.131 638.736,536.304 639,540 C639,540 638,540 638,540 C637.662,520.363 638.457,500.631 638,481 C642.052,480.795 637.524,513.04 645,502.5 C645.323,502.045 644.569,487.149 648,493.5 C650.547,498.215 646.063,542.174 648,551 Z " fill="rgb(15,117,86)"/>
<path d="M634,536 C634.046,541.318 633.976,546.681 634,552 C634.028,558.102 634.437,565.021 634,571 C633.921,572.08 633.79,582.663 631,577.5 C628.849,573.519 631.912,498.592 632,487 C632.855,503.153 633.861,519.851 634,536 Z " fill="rgb(0,8,6)"/>
<path d="M568,496 C577.526,506.424 592.19,527.578 599,540 C600.748,543.188 602.877,543.915 601,548 C587.392,528.323 573.678,508.633 560,489 C562.643,490.503 566.003,493.814 568,496 Z " fill="rgb(3,115,90)"/>
<path d="M742,531 C741.897,594.152 742.077,657.336 742,720.5 C741.172,722.372 735.299,722.479 734,722 C738.291,720.19 736.642,719.872 737,716 C737.3,712.756 736.929,709.277 737,706 C737.007,705.667 736.994,705.333 737,705 C737.029,703.344 736.981,701.656 737,700 C737.074,693.683 736.976,687.318 737,681 C737.006,679.343 736.995,677.657 737,676 C737.141,628.352 736.99,580.649 737,533 C740.009,533.436 738.938,530.33 739,528.5 C739.422,516.018 738.275,503.457 739.5,491 C740.665,502.793 739.658,514.68 740,526.5 C740.053,528.327 738.999,531.438 742,531 Z " fill="rgb(6,194,179)"/>
<path d="M384,506 C384.604,507.352 389.817,515.339 391,517 C388.501,522.586 400.901,534.289 396.5,537 C392.509,529.469 386.251,521.414 383,513.5 C382.544,512.391 380.349,505.588 384,506 Z " fill="rgb(1,104,72)"/>
<path d="M317,530 C317.318,597.483 316.762,665.004 317,732.5 C322.833,768.985 387.604,749.021 413,752.5 C413,752.5 413,567 413,567 C413,567 417,567 417,567 C417.03,570.32 416.987,573.68 417,577 C417.146,614.97 416.074,658.031 416,692.5 C415.979,702.134 414.238,750.611 416,755.5 C416.091,755.753 420.055,759.321 421,757.5 C420.177,745.645 421.664,733.761 422,722 C422,722 421.5,760 421.5,760 C393.816,755.778 333.268,771.652 317,744 C307.824,728.402 312.227,634.98 312,610 C311.709,577.992 311.076,545.968 311,514 C311,514 313,529.5 313,529.5 C313,529.5 317,530 317,530 Z " fill="rgb(33,253,218)"/>
<path d="M648,551 C648.07,553.093 649.151,555.253 649,558 C648.92,559.458 647.418,563.779 647.5,566 C647.5,566 640,563 640,563 C641.514,554.927 645.134,561.134 647,558.5 C647.173,558.255 647.168,552.748 647,552.5 C645.369,550.089 640.124,555.76 639,540 C638.736,536.304 641.248,528.131 640,523.5 C642.521,527.665 645.512,527.192 647,522.5 C646.164,532.024 647.684,541.579 648,551 Z " fill="rgb(3,77,54)"/>
<path d="M617,563 C617,563 613,565 613,565 C609.064,559.32 604.947,553.707 601,548 C602.877,543.915 600.748,543.188 599,540 C599,540 600,539 600,539 C605.525,547.074 611.479,554.926 617,563 Z " fill="rgb(0,47,36)"/>
<path d="M640,563 C637.444,576.633 651.151,585.539 658,595.5 C668.67,611.017 679.077,626.662 690,642 C705.157,663.284 719.393,685.667 737,705 C736.994,705.333 737.007,705.667 737,706 C737,706 735,709.5 735,709.5 C724.934,698.016 716.588,684.964 707,673 C706.93,672.913 707.078,672.357 706,671 C705.308,670.129 704.876,669.112 704,668 C701.443,664.754 700.306,667.87 698,665 C695.55,661.951 678.456,639.138 678,637.5 C677.084,634.211 681.511,639.716 681,636.5 C681,636.5 638,578.5 638,578.5 C637.842,576.025 638.227,573.451 638,571 C637.449,565.043 638.169,558.136 638,552 C637.891,548.018 638.069,543.985 638,540 C638,540 639,540 639,540 C640.124,555.76 645.369,550.089 647,552.5 C647.168,552.748 647.173,558.255 647,558.5 C645.134,561.134 641.514,554.927 640,563 Z " fill="rgb(0,4,5)"/>
<path d="M638,552 C638.169,558.136 637.449,565.043 638,571 C638,571 634,571 634,571 C634.437,565.021 634.028,558.102 634,552 C634,552 638,552 638,552 Z " fill="rgb(2,163,130)"/>
<path d="M702,632 C694.65,634.114 697.215,644.074 690,642 C679.077,626.662 668.67,611.017 658,595.5 C651.151,585.539 637.444,576.633 640,563 C640,563 647.5,566 647.5,566 C647.418,563.779 648.92,559.458 649,558 C668.243,581.478 684.038,607.617 702,632 Z " fill="rgb(0,25,29)"/>
<path d="M422,722 C421.664,733.761 420.177,745.645 421,757.5 C420.055,759.321 416.091,755.753 416,755.5 C414.238,750.611 415.979,702.134 416,692.5 C416.074,658.031 417.146,614.97 417,577 C418.738,576.189 421.926,582.136 422,582.5 C427.149,607.838 422.869,691.564 422,722 Z " fill="rgb(0,178,129)"/>
<path d="M528,600 C540.099,617.124 561.079,653.266 574,666.5 C577.879,670.473 576.367,667.25 581,668 C584.453,672.769 588.319,677.399 592,682 C592,682 632,743 632,743 C632,743 605.5,711 605.5,711 C605.5,711 595,725.5 595,725.5 C566.588,689.118 540.144,649.833 513,612 C513,612 528,600 528,600 Z " fill="rgb(1,45,30)"/>
<path d="M702,632 C713.085,647.047 725.352,661.384 737,676 C736.995,677.657 737.006,679.343 737,681 C737,681 721.5,661 721.5,661 C718.699,662.837 712.572,664.361 713,668.5 C713.256,670.971 733.6,696.113 737,700 C736.981,701.656 737.029,703.344 737,705 C719.393,685.667 705.157,663.284 690,642 C697.215,644.074 694.65,634.114 702,632 Z " fill="rgb(0,57,89)"/>
<path d="M674,654 C690.018,676.57 706.354,698.972 721,722.5 C722.185,723.907 724.485,721 725.5,722 C727.927,724.39 749.808,754.572 749,756.5 C747.058,757.492 743.492,758.692 741.5,759 C716.228,762.906 649.467,763.197 632,743 C632,743 592,682 592,682 C595.038,685.798 598.33,689.38 601,693.5 C601,693.5 602,691 602,691 C611.607,704.706 638.717,749.365 652.5,753 C674.152,758.711 712.144,750.793 735.5,754 C737.746,753.165 735.626,749.813 735,748.5 C724.391,726.259 687.137,680.293 671,657 C671,657 674,654 674,654 Z " fill="rgb(36,243,229)"/>
<path d="M737,681 C736.976,687.318 737.074,693.683 737,700 C733.6,696.113 713.256,670.971 713,668.5 C712.572,664.361 718.699,662.837 721.5,661 C721.5,661 737,681 737,681 Z " fill="rgb(0,88,138)"/>
<path d="M704,668 C700.72,668.508 702.98,672.858 706,671 C707.078,672.357 706.93,672.913 707,673 C707,673 737,716 737,716 C736.642,719.872 738.291,720.19 734,722 C731.409,721.046 704.576,682.161 702,677 C701.767,676.533 703.724,675.153 703,673.5 C702.499,672.357 695.262,667.465 698,665 C700.306,667.87 701.443,664.754 704,668 Z " fill="rgb(6,104,152)"/>
<path d="M706,671 C702.98,672.858 700.72,668.508 704,668 C704.876,669.112 705.308,670.129 706,671 Z " fill="rgb(1,32,60)"/>
<path d="M707,673 C716.588,684.964 724.934,698.016 735,709.5 C735,709.5 737,706 737,706 C736.929,709.277 737.3,712.756 737,716 C737,716 707,673 707,673 Z " fill="rgb(0,44,85)"/>
</svg>
